<svg id="Ebene_2" data-name="Ebene 2" xmlns="http://www.w3.org/2000/svg" viewBox="0 0 250.26 250"><defs><style>.cls-1{fill:#13192a;}.cls-2{fill:#c935ab;}.cls-3{fill:none;stroke:#52d3b4;stroke-miterlimit:10;}</style></defs><rect class="cls-1" x="0.26" width="250" height="250"/><path class="cls-2" d="M90.1,185.73V112.49q0-3.24.21-8.94t.52-12.28q.32-6.58.52-13.37t.21-12.23A65.48,65.48,0,0,0,90.94,55a4.69,4.69,0,0,0-1.62-3.18A10.2,10.2,0,0,0,85.87,50a20.77,20.77,0,0,0-4.6-.94c-1.71-.18-3.34-.35-4.91-.53s-3-.34-4.39-.52a9.11,9.11,0,0,1-3.19-.89c-.9-.48-1.36-1.08-1.36-1.77a2.94,2.94,0,0,1,.16-1.15,1.25,1.25,0,0,1,.58-.52,12.58,12.58,0,0,1,2.45-.58,17.73,17.73,0,0,1,2.14-.16h4c3.14,0,5.84.06,8.1.16s4.37.25,6.32.42,3.87.31,5.75.42,4,.15,6.38.15a58.66,58.66,0,0,0,7.15-.41q3.3-.42,6.27-1c2-.34,3.9-.66,5.75-.94a38.63,38.63,0,0,1,5.59-.41h3.76a16.53,16.53,0,0,1,2.51.21,1.43,1.43,0,0,1,1.36,1.56c0,1.19-.8,2-2.41,2.51a31.1,31.1,0,0,1-4.12.89A25.37,25.37,0,0,0,123.85,48a28.44,28.44,0,0,0-4.44,1.36c-1.15.49-2,.87-2.56,1.15a8.06,8.06,0,0,0-2,1.88,5.42,5.42,0,0,0-.89,3.35v126a4.8,4.8,0,0,0,1.26,3.56,7.82,7.82,0,0,0,3.19,1.88,15.75,15.75,0,0,0,4.18.73c1.49.07,2.9.1,4.23.1q2.29,0,6.47-.21c2.79-.13,5.71-.34,8.78-.62s6-.65,8.94-1.1a41.42,41.42,0,0,0,7.05-1.62c2.44-.84,4.68-1.69,6.74-2.56a17.17,17.17,0,0,0,5.17-3.29,9.5,9.5,0,0,0,1-.89c.48-.45,1-1,1.62-1.67s1.16-1.38,1.72-2.14a19.55,19.55,0,0,0,1.46-2.3l1.1-1.46a9.31,9.31,0,0,1,.89-1,11.67,11.67,0,0,0,1-1.78l1.41-2.82,1.62-3.18q.84-1.62,1.68-3.09a11.68,11.68,0,0,1,1.41-1.56,2.57,2.57,0,0,1,1.82-.63c.77,0,1.21.43,1.31,1.31a20.3,20.3,0,0,1,.16,2.55,22.61,22.61,0,0,1-.58,5.07c-.38,1.71-.82,3.4-1.3,5.07s-1,3.34-1.57,5a31.64,31.64,0,0,0-1.25,5,32.19,32.19,0,0,0-.68,5,43.89,43.89,0,0,1-.53,4.71,8.18,8.18,0,0,1-1.35,3.5,3.72,3.72,0,0,1-3.19,1.36H106.3c-4.32,0-7.93.08-10.82.26s-5.52.38-7.89.62-4.72.46-7,.63-5.07.26-8.2.26a12,12,0,0,1-3-.31,3.14,3.14,0,0,1-1.94-1.67,4.34,4.34,0,0,0-.2-.63,4.57,4.57,0,0,1-.11-1.36,2,2,0,0,1,1.2-1.93,17.88,17.88,0,0,1,1.83-.78,24.48,24.48,0,0,1,3.45-.27c1.53,0,2.93-.12,4.18-.26.63-.07,1.43-.17,2.4-.31s2-.35,3.19-.63a36.2,36.2,0,0,0,3.5-1A20.11,20.11,0,0,0,90.1,185.73Z" transform="translate(0.26)"/><line class="cls-3" x1="41.76" y1="1" x2="41.76" y2="47"/><line class="cls-3" x1="26.26" y1="1" x2="26.26" y2="84"/><line class="cls-3" x1="10.76" y1="1" x2="10.76" y2="121"/><line class="cls-3" x1="250.26" y1="42.5" x2="204.26" y2="42.5"/><line class="cls-3" x1="250.26" y1="27" x2="167.26" y2="27"/><line class="cls-3" x1="250.26" y1="11.5" x2="130.26" y2="11.5"/><line class="cls-3" x1="0.01" y1="208.53" x2="46" y2="207.74"/><line class="cls-3" x1="0.27" y1="224.03" x2="83.26" y2="222.61"/><line class="cls-3" x1="0.54" y1="239.52" x2="120.52" y2="237.47"/><line class="cls-3" x1="205.76" y1="249" x2="205.76" y2="203"/><line class="cls-3" x1="221.26" y1="249" x2="221.26" y2="166"/><line class="cls-3" x1="236.76" y1="249" x2="236.76" y2="129"/></svg>